<svg width="30" height="30" viewBox="0 0 30 30" fill="none" xmlns="http://www.w3.org/2000/svg">
<path d="M15 30C23.2843 30 30 23.2843 30 15C30 6.71573 23.2843 0 15 0C6.71573 0 0 6.71573 0 15C0 23.2843 6.71573 30 15 30Z" fill="#E2E7E9"/>
<path d="M15 28.75C22.5939 28.75 28.75 22.5939 28.75 15C28.75 7.40608 22.5939 1.25 15 1.25C7.40608 1.25 1.25 7.40608 1.25 15C1.25 22.5939 7.40608 28.75 15 28.75Z" stroke="#0FC16F" stroke-width="2"/>
<path d="M22.9102 23.481V6.48877H14.4531L5.93262 14.9897V23.481H22.9102Z" fill="#039A37"/>
<path d="M10.1965 10.7612H18.5828L22.9114 23.4492L10.1965 19.2329V10.7612Z" fill="#00D89E"/>
<path d="M5.93262 15.0562L10.1831 19.2139L22.8564 23.457L5.93262 23.4937V15.0562Z" fill="#00FF89"/>
<path opacity="0.3" d="M5.93262 23.4907L22.9248 6.45703V23.4639L5.93262 23.4907Z" fill="#333333"/>
</svg>
